<svg id="Слой_2" data-name="Слой 2" xmlns="http://www.w3.org/2000/svg" viewBox="0 0 136.13748 150.0177">
  <defs>
    <style>
      .cls-1 {
        fill: #dd7d1d;
      }

      .cls-1, .cls-2 {
        stroke: #fff;
        stroke-miterlimit: 10;
      }

      .cls-2, .cls-4 {
        fill: #393e46;
      }

      .cls-3 {
        fill: #0f702d;
      }

      .cls-5 {
        fill: #fff;
      }
    </style>
  </defs>
  <title>Безымянный-1</title>
  <path class="cls-1" d="M47.5,66.5h-23v-39a138.92476,138.92476,0,0,1,113,0v27h11v-36a157.13333,157.13333,0,0,0-134,0l-1,60h22a45.06086,45.06086,0,0,0,45,38,46.689,46.689,0,0,0,29-10,45.44327,45.44327,0,0,0,13-17h-13a33.95593,33.95593,0,0,1-11,11,34.31112,34.31112,0,0,1-19,5c-1.75731-.08337-17.82466-1.12006-27-15A34.31726,34.31726,0,0,1,47.5,66.5Z" transform="translate(-12.9916 -3)"/>
  <path class="cls-2" d="M52.5,54.5h-13a45.99336,45.99336,0,0,1,43-26,44.69769,44.69769,0,0,1,30,12,44.197,44.197,0,0,1,13,25l23,1a79.88618,79.88618,0,0,1-5,33c-14.78525,38.609-55.72151,51.17947-62,53a93.99583,93.99583,0,0,1-67-63h13a61.04977,61.04977,0,0,0,54,47,64.40559,64.40559,0,0,0,56-58h-23c.34551-1.90941,2.55049-15.40846-7-27-9.11621-11.06445-21.948-11.90091-24-12a37.03377,37.03377,0,0,0-31,15Z" transform="translate(-12.9916 -3)"/>
  <circle class="cls-3" cx="68.5084" cy="69.5" r="22.5"/>
  <ellipse class="cls-4" cx="68.5084" cy="69.5" rx="5" ry="18"/>
  <ellipse class="cls-5" cx="92.53907" cy="60.50275" rx="4.80641" ry="1.47889" transform="translate(-30.17494 71.10615) rotate(-40.24444)"/>
  <ellipse class="cls-5" cx="69.17391" cy="83.19565" rx="4.80641" ry="1.47889" transform="translate(-50.36634 61.38261) rotate(-40.24444)"/>
</svg>
