<svg width="126" height="130" viewBox="0 0 126 130" fill="none" xmlns="http://www.w3.org/2000/svg">
<g clip-path="url(#clip0_2332_806)">
<path d="M76.938 124.511C84.5173 121.419 88.8282 121.625 91.3931 122.461C93.1438 123.032 94.8915 124.16 98.1243 124.351C100.155 124.471 101.398 124.14 102.354 125.072C103.485 126.175 103.665 128.512 102.711 129.363C102.335 129.649 101.869 129.785 101.4 129.748C97.8582 129.793 96.0942 129.749 95.7411 129.746C81.9914 129.598 47.7103 123.591 47.7103 123.591C32.9182 119.52 18.9263 115.598 8.73517 104.055C2.7083 97.2278 1.16859 91.5908 0.671219 89.079C0.383689 87.6269 -0.789766 81.0809 2.45907 71.9824C7.05408 59.1138 14.8395 56.9787 20.825 47.2643C24.4891 41.3175 28.1561 31.4309 25.9497 14.9947C27.8552 16.4978 43.8002 29.4252 45.9229 48.1606C47.2534 59.903 42.9405 72.042 42.4283 73.4175C41.9837 74.6113 41.4789 75.7105 41.4789 75.7105C40.1162 78.6398 38.3502 81.3608 36.2332 83.7931C33.0052 87.7751 30.9757 96.1399 33.7711 102.884C36.1838 108.704 42.4564 113.992 48.7032 113.758C62.8115 113.229 68.3496 85.3091 68.5587 83.9172C68.7122 82.9379 68.7651 81.9452 68.7165 80.955C68.641 79.9778 68.3959 78.5079 68.3959 78.5079C67.684 75.6882 66.6777 73.2087 64.8258 69.5921C62.2994 64.6583 61.602 64.2533 60.4972 61.9294C58.9074 58.5852 57.5941 51.9102 58.7102 45.2635C59.7568 39.0304 62.3497 34.9376 64.9847 30.7784C71.2564 20.8788 78.7669 16.4698 80.1348 16.3734C80.6426 16.229 81.1337 16.0305 81.5997 15.7811C81.7717 15.6964 81.9094 15.5545 81.9895 15.3793C82.0695 15.2041 82.087 15.0064 82.039 14.8196C81.4502 12.6755 81.3963 10.418 81.8821 8.24784C82.3292 6.50748 83.1433 4.88466 84.2689 3.48989C84.9659 2.54433 85.765 1.67972 86.6515 0.911926C86.0163 2.17168 85.6694 3.55889 85.6364 4.97154C85.6034 6.38419 85.8851 7.78634 86.4609 9.07481C87.0269 10.4357 88.0902 12.1787 89.0278 12.3351C89.5659 12.4127 90.1142 12.3776 90.6382 12.232C90.95 12.164 91.2556 12.0684 91.5508 11.9464C92.8148 11.4432 94.7636 11.5558 95.1629 11.5789C97.1597 11.6943 98.5931 12.5121 99.6678 13.0628C100.697 13.5757 101.654 14.2248 102.512 14.9929C102.951 15.3501 103.342 15.7642 103.673 16.2243C104.588 17.5656 104.449 18.7965 106.166 20.5148C108.495 22.8452 114.044 24.6086 120.323 24.6563C120.578 24.6582 120.78 24.6571 120.879 24.6563C117.159 29.5466 115.255 31.8774 112.798 32.379C107.588 33.4428 103.232 31.0933 98.8589 33.0192C95.7754 34.3774 93.3297 36.1187 92.922 39.3815C92.6702 41.3963 93.247 43.0228 97.0322 49.505C101.992 57.9992 102.767 58.2289 103.882 61.0091C105.988 66.2573 105.428 70.9243 104.796 76.1944C104.606 77.7751 97.762 95.7576 96.1085 98.1162C95.8675 98.4468 95.6101 98.765 95.3374 99.0696" fill="#EE7226"/>
<path d="M76.938 124.511C84.5173 121.419 88.8282 121.625 91.3931 122.461C93.1438 123.032 94.8915 124.16 98.1243 124.351C100.155 124.471 101.398 124.14 102.354 125.072C103.485 126.175 103.665 128.512 102.711 129.363C102.335 129.649 101.869 129.785 101.4 129.748C97.8582 129.793 96.0942 129.749 95.7411 129.746C81.9914 129.598 47.7103 123.591 47.7103 123.591C32.9182 119.52 18.9263 115.598 8.73517 104.055C2.7083 97.2278 1.16859 91.5908 0.671219 89.079C0.383689 87.6269 -0.789766 81.0809 2.45907 71.9824C7.05408 59.1138 14.8395 56.9787 20.825 47.2643C24.4891 41.3175 28.1561 31.4309 25.9497 14.9947C27.8552 16.4978 43.8002 29.4252 45.9229 48.1606C47.2534 59.903 42.9405 72.042 42.4283 73.4175C41.9837 74.6113 41.4789 75.7105 41.4789 75.7105C40.1162 78.6398 38.3502 81.3608 36.2332 83.7931C33.0052 87.7751 30.9757 96.1399 33.7711 102.884C36.1838 108.704 42.4564 113.992 48.7032 113.758C62.8115 113.229 68.3496 85.3091 68.5587 83.9172C68.7122 82.9379 68.7651 81.9452 68.7165 80.955C68.641 79.9778 68.3959 78.5079 68.3959 78.5079C67.684 75.6882 66.6777 73.2087 64.8258 69.5921C62.2994 64.6583 61.602 64.2533 60.4972 61.9294C58.9074 58.5852 57.5941 51.9102 58.7102 45.2635C59.7568 39.0304 62.3497 34.9376 64.9847 30.7784C71.2564 20.8788 78.7669 16.4698 80.1348 16.3734C80.6426 16.229 81.1337 16.0305 81.5997 15.7811C81.7717 15.6964 81.9094 15.5545 81.9895 15.3793C82.0695 15.2041 82.087 15.0064 82.039 14.8196C81.4502 12.6755 81.3963 10.418 81.8821 8.24784C82.3292 6.50748 83.1433 4.88466 84.2689 3.48989C84.9659 2.54433 85.765 1.67972 86.6515 0.911926C86.0163 2.17168 85.6694 3.55889 85.6364 4.97154C85.6034 6.38419 85.8851 7.78634 86.4609 9.07481C87.0269 10.4357 88.0902 12.1787 89.0278 12.3351C89.5659 12.4127 90.1142 12.3776 90.6382 12.232C90.95 12.164 91.2556 12.0684 91.5508 11.9464C92.8148 11.4432 94.7636 11.5558 95.1629 11.5789C97.1597 11.6943 98.5931 12.5121 99.6678 13.0628C100.697 13.5757 101.654 14.2248 102.512 14.9929C102.951 15.3501 103.342 15.7642 103.673 16.2243C104.588 17.5656 104.449 18.7965 106.166 20.5148C108.495 22.8452 114.044 24.6086 120.323 24.6563C120.578 24.6582 120.78 24.6571 120.879 24.6563C117.159 29.5466 115.255 31.8774 112.798 32.379C107.588 33.4428 103.232 31.0933 98.8589 33.0192C95.7754 34.3774 93.3297 36.1187 92.922 39.3815C92.6702 41.3963 93.247 43.0228 97.0322 49.505C101.992 57.9992 102.767 58.2289 103.882 61.0091C105.988 66.2573 105.428 70.9243 104.796 76.1944C104.606 77.7751 97.762 95.7576 96.1085 98.1162C95.8675 98.4468 95.6101 98.765 95.3374 99.0696" stroke="black" stroke-miterlimit="10"/>
<path d="M92.1019 122.734C95.1318 119.748 97.0819 115.824 97.6412 111.591C98.3452 105.425 96.5671 97.5645 91.2092 93.8602C84.7024 89.3615 78.0856 95.9889 75.0512 101.503C67.864 110.745 70.2816 122.139 76.2624 125.612C80.4868 128.065 86.9456 126.831 92.1019 122.734Z" fill="#EE7225"/>
<path d="M46.051 56.3188C44.9087 51.9608 43.493 47.6802 41.8125 43.5029C41.0679 47.4183 39.614 51.1621 37.5236 54.5468C37.2553 50.5233 36.5087 46.5468 35.2998 42.7027C33.1698 46.4098 30.7531 49.942 28.0722 53.2664C27.9266 48.9582 27.9448 44.6 27.7992 40.2918C25.3393 43.5557 21.8971 46.7483 19.1577 49.7306L22.0502 45.1088L23.1578 42.7919L24.2599 39.9438L25.1335 37.017L26.2057 32.6991L26.3421 30.1318L26.8014 27.2172L26.6151 24.9361V20.8149L26.3825 18.9761L26.166 16.8935V15.333L27.0847 15.9269L28.3951 17.0776L30.2698 18.8498L32.1534 20.7842L33.7308 22.536L35.9144 25.1929L37.0502 26.7027L38.6032 28.9459L39.9023 31.021L41.1477 33.2352L42.4243 35.8259L43.4407 38.2359L44.4548 41.1602L45.6398 46.1549L46.051 49.7451L46.1735 52.3461L46.051 56.3188Z" stroke="#F9F9F9" stroke-miterlimit="10"/>
<path d="M76.938 124.511C84.5173 121.419 88.8282 121.625 91.3931 122.461C93.1438 123.032 94.8915 124.16 98.1243 124.351C100.155 124.471 101.398 124.14 102.354 125.072C103.485 126.175 103.665 128.512 102.711 129.363C102.335 129.649 101.869 129.785 101.4 129.748C97.8582 129.793 96.0942 129.749 95.7411 129.746C81.9914 129.598 47.7103 123.591 47.7103 123.591C32.9182 119.52 18.9263 115.598 8.73517 104.055C2.7083 97.2278 1.16859 91.5908 0.671219 89.079C0.383689 87.6269 -0.789766 81.0809 2.45907 71.9824C7.05408 59.1138 14.8395 56.9787 20.825 47.2643C24.4891 41.3175 28.1561 31.4309 25.9497 14.9947C27.8552 16.4978 43.8002 29.4252 45.9229 48.1606C47.2534 59.903 42.9405 72.042 42.4283 73.4175C41.9837 74.6113 41.4789 75.7105 41.4789 75.7105C40.1162 78.6398 38.3502 81.3608 36.2332 83.7931C33.0052 87.7751 30.9757 96.1399 33.7711 102.884C36.1838 108.704 42.4564 113.992 48.7032 113.758C62.8115 113.229 68.3496 85.3091 68.5587 83.9172C68.7122 82.9379 68.7651 81.9452 68.7165 80.955C68.641 79.9778 68.3959 78.5079 68.3959 78.5079C67.684 75.6882 66.6777 73.2087 64.8258 69.5921C62.2994 64.6583 61.602 64.2533 60.4972 61.9294C58.9074 58.5852 57.5941 51.9102 58.7102 45.2635C59.7568 39.0304 62.3497 34.9376 64.9847 30.7784C71.2564 20.8788 78.7669 16.4698 80.1348 16.3734C80.6426 16.229 81.1337 16.0305 81.5997 15.7811C81.7717 15.6964 81.9094 15.5545 81.9895 15.3793C82.0695 15.2041 82.087 15.0064 82.039 14.8196C81.4502 12.6755 81.3963 10.418 81.8821 8.24784C82.3292 6.50748 83.1433 4.88466 84.2689 3.48989C84.9659 2.54433 85.765 1.67972 86.6515 0.911926C86.0163 2.17168 85.6694 3.55889 85.6364 4.97154C85.6034 6.38419 85.8851 7.78634 86.4609 9.07481C87.0269 10.4357 88.0902 12.1787 89.0278 12.3351C89.5659 12.4127 90.1142 12.3776 90.6382 12.232C90.95 12.164 91.2556 12.0684 91.5508 11.9464C92.8148 11.4432 94.7636 11.5558 95.1629 11.5789C97.1597 11.6943 98.5931 12.5121 99.6678 13.0628C100.697 13.5757 101.654 14.2248 102.512 14.9929C102.951 15.3501 103.342 15.7642 103.673 16.2243C104.588 17.5656 104.449 18.7965 106.166 20.5148C108.495 22.8452 114.044 24.6086 120.323 24.6563C120.578 24.6582 120.78 24.6571 120.879 24.6563C117.159 29.5466 115.255 31.8774 112.798 32.379C107.588 33.4428 103.232 31.0933 98.8589 33.0192C95.7754 34.3774 93.3297 36.1187 92.922 39.3815C92.6702 41.3963 93.247 43.0228 97.0322 49.505C101.992 57.9992 102.767 58.2289 103.882 61.0091C105.988 66.2573 105.428 70.9243 104.796 76.1944C104.606 77.7751 97.762 95.7576 96.1085 98.1162C95.8675 98.4468 95.6101 98.765 95.3374 99.0696" fill="#EE7225"/>
<path d="M76.938 124.511C84.5173 121.419 88.8282 121.625 91.3931 122.461C93.1438 123.032 94.8915 124.16 98.1243 124.351C100.155 124.471 101.398 124.14 102.354 125.072C103.485 126.175 103.665 128.512 102.711 129.363C102.335 129.649 101.869 129.785 101.4 129.748C97.8582 129.793 96.0942 129.749 95.7411 129.746C81.9914 129.598 47.7103 123.591 47.7103 123.591C32.9182 119.52 18.9263 115.598 8.73517 104.055C2.7083 97.2278 1.16859 91.5908 0.671219 89.079C0.383689 87.6269 -0.789766 81.0809 2.45907 71.9824C7.05408 59.1138 14.8395 56.9787 20.825 47.2643C24.4891 41.3175 28.1561 31.4309 25.9497 14.9947C27.8552 16.4978 43.8002 29.4252 45.9229 48.1606C47.2534 59.903 42.9405 72.042 42.4283 73.4175C41.9837 74.6113 41.4789 75.7105 41.4789 75.7105C40.1162 78.6398 38.3502 81.3608 36.2332 83.7931C33.0052 87.7751 30.9757 96.1399 33.7711 102.884C36.1838 108.704 42.4564 113.992 48.7032 113.758C62.8115 113.229 68.3496 85.3091 68.5587 83.9172C68.7122 82.9379 68.7651 81.9452 68.7165 80.955C68.641 79.9778 68.3959 78.5079 68.3959 78.5079C67.684 75.6882 66.6777 73.2087 64.8258 69.5921C62.2994 64.6583 61.602 64.2533 60.4972 61.9294C58.9074 58.5852 57.5941 51.9102 58.7102 45.2635C59.7568 39.0304 62.3497 34.9376 64.9847 30.7784C71.2564 20.8788 78.7669 16.4698 80.1348 16.3734C80.6426 16.229 81.1337 16.0305 81.5997 15.7811C81.7717 15.6964 81.9094 15.5545 81.9895 15.3793C82.0695 15.2041 82.087 15.0064 82.039 14.8196C81.4502 12.6755 81.3963 10.418 81.8821 8.24784C82.3292 6.50748 83.1433 4.88466 84.2689 3.48989C84.9659 2.54433 85.765 1.67972 86.6515 0.911926C86.0163 2.17168 85.6694 3.55889 85.6364 4.97154C85.6034 6.38419 85.8851 7.78634 86.4609 9.07481C87.0269 10.4357 88.0902 12.1787 89.0278 12.3351C89.5659 12.4127 90.1142 12.3776 90.6382 12.232C90.95 12.164 91.2556 12.0684 91.5508 11.9464C92.8148 11.4432 94.7636 11.5558 95.1629 11.5789C97.1597 11.6943 98.5931 12.5121 99.6678 13.0628C100.697 13.5757 101.654 14.2248 102.512 14.9929C102.951 15.3501 103.342 15.7642 103.673 16.2243C104.588 17.5656 104.449 18.7965 106.166 20.5148C108.495 22.8452 114.044 24.6086 120.323 24.6563C120.578 24.6582 120.78 24.6571 120.879 24.6563C117.159 29.5466 115.255 31.8774 112.798 32.379C107.588 33.4428 103.232 31.0933 98.8589 33.0192C95.7754 34.3774 93.3297 36.1187 92.922 39.3815C92.6702 41.3963 93.247 43.0228 97.0322 49.505C101.992 57.9992 102.767 58.2289 103.882 61.0091C105.988 66.2573 105.428 70.9243 104.796 76.1944C104.606 77.7751 97.762 95.7576 96.1085 98.1162C95.8675 98.4468 95.6101 98.765 95.3374 99.0696" stroke="black" stroke-miterlimit="10"/>
<path d="M99.6082 13.0628C97.7863 9.53432 97.2125 5.48548 97.9813 1.58417C97.0156 2.59367 96.1009 3.65153 95.2408 4.75374C93.989 6.35891 93.1132 7.49533 92.376 9.20089C91.9938 10.0851 91.6975 11.0046 91.4912 11.9465L99.6082 13.0628Z" fill="#EE7225" stroke="black" stroke-miterlimit="10"/>
<path d="M86.287 45.6146C86.4381 48.2205 88.1817 50.5859 89.7241 52.577C90.6354 53.7534 92.643 53.5404 93.5992 52.577C94.7518 51.4156 94.5129 49.8519 93.5992 48.6723C93.2047 48.1368 92.8424 47.578 92.5142 46.9988C92.3457 46.7063 92.1849 46.4096 92.0317 46.1084C92.0118 46.0692 91.7452 45.2331 91.7673 45.6146C91.7515 44.8873 91.4578 44.1943 90.9473 43.6799C90.4368 43.1655 89.7489 42.8695 89.0271 42.8536C87.6104 42.8536 86.2003 44.1184 86.287 45.6146Z" fill="white"/>
<path d="M86.5545 48.0906C87.1141 49.9881 87.9106 51.8063 88.9248 53.5016C89.1058 53.8159 89.3465 54.0912 89.6333 54.3116C89.9201 54.5321 90.2472 54.6933 90.5959 54.7861C90.9447 54.8788 91.3081 54.9014 91.6655 54.8523C92.0229 54.8032 92.3671 54.6835 92.6785 54.5001C92.9899 54.3167 93.2623 54.0733 93.4801 53.7836C93.6979 53.4939 93.8568 53.1637 93.9477 52.812C94.0386 52.4603 94.0596 52.094 94.0097 51.7341C93.9598 51.3741 93.8399 51.0277 93.6569 50.7145C92.8667 49.4415 92.2549 48.0645 91.839 46.6227C91.7437 46.2727 91.5809 45.945 91.3598 45.6585C91.1387 45.3719 90.8638 45.1321 90.5506 44.9527C90.2375 44.7733 89.8923 44.6578 89.5349 44.6129C89.1774 44.5681 88.8147 44.5946 88.4674 44.691C88.1202 44.7875 87.7952 44.952 87.5111 45.1751C87.227 45.3982 86.9893 45.6756 86.8116 45.9913C86.634 46.307 86.5198 46.655 86.4757 47.0152C86.4316 47.3754 86.4584 47.7408 86.5545 48.0906Z" fill="white"/>
<path d="M86.0079 48.3539C85.885 49.5741 86.2871 50.8124 86.6624 51.9587C87.0275 53.2295 87.6254 54.4203 88.4252 55.4695C89.3553 56.6308 91.3322 56.445 92.3003 55.4695C93.4394 54.3218 93.2328 52.7291 92.3003 51.5649C92.4471 51.7481 92.2534 51.3923 92.2325 51.3243C92.1119 50.9317 91.9626 50.5471 91.8391 50.1551C91.6064 49.5836 91.4871 48.9716 91.4881 48.3539C91.6378 46.8682 90.1217 45.5929 88.748 45.5929C87.1419 45.5929 86.158 46.8639 86.0079 48.3539Z" fill="white"/>
<path d="M86.3145 47.8854C85.9492 49.2025 85.9616 50.5969 86.3499 51.9072C86.8003 53.2459 87.9164 54.2584 88.9869 55.1149C90.1448 56.0412 91.7316 56.2539 92.862 55.1149C93.8161 54.1535 94.0273 52.1425 92.862 51.2103C92.6855 51.0691 91.2177 50.0075 91.2704 49.7346C91.4513 48.7975 91.5301 51.3654 91.5546 49.9573C91.5515 49.7761 91.5535 49.5951 91.5604 49.4141C91.5052 49.6995 91.5181 49.6793 91.599 49.3534C91.6946 49.0038 91.721 48.6386 91.6766 48.2787C91.6322 47.9188 91.5178 47.5712 91.3401 47.2558C91.1624 46.9404 90.9248 46.6634 90.6408 46.4406C90.3568 46.2178 90.0321 46.0535 89.6851 45.9571C89.3381 45.8607 88.9757 45.8341 88.6185 45.8788C88.2613 45.9236 87.9164 46.0388 87.6034 46.2178C87.2904 46.3969 87.0155 46.6363 86.7943 46.9224C86.5732 47.2086 86.4101 47.5358 86.3145 47.8854Z" fill="white"/>
<path d="M85.1261 46.4443C83.6018 49.8391 85.1637 52.4562 87.0017 55.2898C88.9237 58.253 93.6707 55.4891 91.7337 52.5028C91.244 51.7478 90.6671 51.0272 90.2485 50.2289C90.1386 50.0194 89.7929 49.3766 89.8581 49.2313C90.4677 47.8737 90.2451 46.2611 88.8751 45.4537C87.7006 44.7616 85.7391 45.0791 85.1261 46.4443Z" fill="white"/>
<path d="M85.6622 45.9044C84.6216 47.3875 84.0055 49.0237 84.3185 50.855C84.66 52.4256 85.2602 53.9275 86.0942 55.2983C87.8218 58.3967 92.5575 55.6162 90.8262 52.5113C90.3592 51.7749 90.001 50.9739 89.7627 50.1336C89.6385 49.56 89.8999 49.396 90.3943 48.6914C91.2491 47.4732 90.6104 45.6206 89.4113 44.9139C88.0394 44.1054 86.5191 44.6834 85.6622 45.9044Z" fill="white"/>
<path d="M89.872 48.7849L89.7148 48.6265C89.1914 48.1271 88.498 47.8488 87.7772 47.8488C87.0564 47.8488 86.363 48.1271 85.8397 48.6265L85.4112 49.1853C85.1655 49.6079 85.0363 50.089 85.0371 50.5788L85.135 51.3127C85.2611 51.7735 85.504 52.1934 85.8397 52.5311L85.9968 52.6895C86.5202 53.1888 87.2136 53.4672 87.9344 53.4672C88.6552 53.4672 89.3486 53.1888 89.872 52.6895L90.3004 52.1307C90.5461 51.7081 90.6753 51.227 90.6745 50.7372L90.5766 50.0032C90.4505 49.5424 90.2077 49.1226 89.872 48.7849Z" fill="white"/>
<path d="M83.1588 48.1506C83.3879 49.4494 83.782 50.7131 84.3312 51.9105C84.9043 53.2402 86.9387 53.6425 88.0802 52.901C89.4492 52.0117 89.6764 50.5462 89.0632 49.1235C89.3089 49.6934 89.0442 49.0537 88.9985 48.924C88.9087 48.6695 88.8278 48.4122 88.7557 48.1522C88.6232 47.6689 88.5189 47.1782 88.4433 46.6826C88.2183 45.2518 86.3717 44.3306 85.0726 44.7542C83.5305 45.2571 82.9176 46.6173 83.1588 48.1506Z" fill="white"/>
<path d="M91.0794 44.1969C91.2113 44.305 91.318 44.4409 91.3921 44.5951C91.4662 44.7492 91.5059 44.9178 91.5084 45.0891C91.525 45.3441 91.5287 45.3207 91.5195 45.0188C91.4688 45.4361 91.4969 45.1298 91.5384 44.8889C91.6241 44.3909 91.7107 43.8931 91.7982 43.3955C92.0447 41.9781 91.4213 40.3519 89.8844 39.9991C88.5511 39.6932 86.7783 40.4063 86.5137 41.9275C86.2987 42.9069 86.1434 43.8985 86.0487 44.897C86.0004 46.0768 86.4156 47.2282 87.2043 48.1016C88.1266 49.2146 90.1396 49.1331 91.0794 48.1016C92.1577 46.918 92.0633 45.3842 91.0794 44.1969Z" fill="white"/>
<path d="M86.4448 40.8163C86.1337 41.9033 85.919 43.0159 85.8032 44.1411C85.8027 44.5038 85.8733 44.863 86.011 45.1981C86.1488 45.5331 86.3509 45.8374 86.6058 46.0935C87.1196 46.6113 87.8166 46.9021 88.5433 46.9021C89.2701 46.9021 89.967 46.6113 90.4809 46.0935C90.9591 45.5524 91.2419 44.8644 91.2835 44.1411C91.1901 44.9194 91.2604 44.307 91.291 44.125C91.3277 43.907 91.3695 43.6901 91.4165 43.4742C91.5036 43.0727 91.6102 42.6772 91.7293 42.2843C91.9154 41.5784 91.8192 40.8271 91.4613 40.192C91.1034 39.5568 90.5125 39.0886 89.8155 38.8879C89.1153 38.7086 88.3733 38.8091 87.745 39.1686C87.1167 39.528 86.6508 40.1185 86.4448 40.8163Z" fill="white"/>
<path d="M86.6514 40.0921C85.9828 41.1305 85.4791 42.2677 85.1586 43.4625C84.9654 44.1686 85.0585 44.9232 85.4174 45.5601C85.7764 46.197 86.3717 46.6642 87.0725 46.8589C87.7732 47.0535 88.522 46.9597 89.1541 46.5981C89.7863 46.2364 90.2499 45.6366 90.4431 44.9305C90.5086 44.69 90.5788 44.4517 90.6617 44.2166C90.703 44.0993 90.7468 43.9828 90.793 43.8673C90.6463 44.2102 90.6159 44.2872 90.7015 44.0986C90.9192 43.6827 91.1263 43.2732 91.3834 42.8792C91.7449 42.2457 91.8444 41.4942 91.6605 40.7873C91.4765 40.0805 91.0239 39.475 90.4004 39.1017C89.7691 38.7485 89.027 38.6544 88.3286 38.8389C87.6302 39.0234 87.0294 39.4723 86.6514 40.0921Z" fill="white"/>
<path d="M86.0307 40.2234C85.1708 41.3305 84.6906 42.6888 84.6621 44.0943C84.6621 44.8265 84.9508 45.5288 85.4647 46.0465C85.9786 46.5643 86.6755 46.8553 87.4022 46.8553C88.129 46.8553 88.8259 46.5643 89.3398 46.0465C89.8537 45.5288 90.1424 44.8265 90.1424 44.0943C90.1414 43.9357 90.1507 43.7771 90.1701 43.6197L90.0723 44.3536C90.1007 44.1968 90.1477 44.0475 90.1819 43.893C90.293 43.3913 89.8808 44.474 90.191 43.8915C90.3599 43.5841 90.551 43.2896 90.7627 43.0104C90.9466 42.692 91.0657 42.3399 91.1131 41.9746C91.1606 41.6094 91.1354 41.2383 91.039 40.8829C90.8438 40.191 90.3932 39.6006 89.7797 39.2329C89.4635 39.0482 89.1141 38.9285 88.7517 38.8807C88.3893 38.8329 88.021 38.858 87.6683 38.9545C86.9976 39.1822 86.4213 39.6287 86.0307 40.2234Z" fill="white"/>
<path d="M86.7229 40.0596C84.7788 40.8963 84.2356 43.1901 84.2051 45.0961C84.2051 45.8283 84.4938 46.5306 85.0077 47.0483C85.5215 47.5661 86.2185 47.8571 86.9452 47.8571C87.6719 47.8571 88.3689 47.5661 88.8828 47.0483C89.3966 46.5306 89.6853 45.8283 89.6853 45.0961C89.687 44.9915 89.6369 44.3763 89.7168 44.3206L89.6711 44.6721C89.6945 44.5457 89.7263 44.421 89.7661 44.2988C89.5862 44.6888 89.5457 44.7897 89.6448 44.6017C89.6802 44.5321 89.7208 44.4654 89.7663 44.4021C89.8118 44.2226 89.7927 44.0326 89.7123 43.866C89.6319 43.6993 89.4954 43.5668 89.3272 43.492C89.159 43.4172 88.9698 43.4049 88.7935 43.4574C88.6171 43.5098 88.4649 43.6236 88.3639 43.7784C88.2629 43.9333 88.2197 44.1192 88.242 44.3032C88.2643 44.4871 88.3506 44.6571 88.4855 44.783C88.6205 44.9088 88.7953 44.9824 88.9791 44.9906C89.1628 44.9988 89.3434 44.9411 89.4889 44.8277C90.1065 44.4646 90.5585 43.8723 90.7481 43.1776C90.9377 42.4595 90.8384 41.695 90.4719 41.0502C90.1092 40.43 89.5223 39.9752 88.8343 39.7813C88.1195 39.6298 87.3749 39.728 86.7229 40.0596Z" fill="white"/>
<path d="M85.4618 41.1693C84.6763 41.9061 84.1379 42.871 83.9211 43.93C83.7475 44.6491 83.846 45.4076 84.1973 46.0575C84.3789 46.3706 84.6199 46.6446 84.9066 46.8639C85.1933 47.0832 85.52 47.2434 85.8682 47.3354C86.2163 47.4273 86.579 47.4493 86.9356 47.4C87.2922 47.3507 87.6356 47.2311 87.9463 47.048C88.2539 46.8704 88.5236 46.6331 88.7397 46.3499C88.9559 46.0667 89.1142 45.7432 89.2056 45.398C89.2404 45.202 89.2939 45.0099 89.3654 44.8243L89.0892 45.4839C89.1801 45.2703 89.2947 45.0678 89.431 44.8803L89.0026 45.4391C89.1044 45.3089 89.2162 45.1868 89.3369 45.0739C89.8453 44.5533 90.1303 43.8521 90.1303 43.1216C90.1303 42.3911 89.8453 41.6899 89.3369 41.1693C88.8158 40.6655 88.1215 40.3842 87.3993 40.3842C86.6771 40.3842 85.9829 40.6655 85.4618 41.1693Z" fill="white"/>
<path d="M85.0814 41.2664C84.4908 41.9451 84.0538 42.7451 83.8007 43.611C83.585 44.5075 83.5666 45.4406 83.7466 46.3449C83.9368 47.0394 84.3886 47.6314 85.0059 47.9949C85.3166 48.178 85.66 48.2977 86.0166 48.347C86.3732 48.3963 86.7359 48.3743 87.084 48.2823C87.4322 48.1903 87.7589 48.0301 88.0456 47.8109C88.3323 47.5916 88.5733 47.3176 88.7549 47.0045C89.0879 46.3487 89.1855 45.597 89.0311 44.8769L89.0082 44.7284L89.106 45.4624C89.0809 45.2132 89.082 44.9621 89.1093 44.7132L89.0115 45.4471C89.0272 45.3481 89.0431 45.2494 89.066 45.1516C89.0924 45.0393 89.2559 44.6167 89.0677 45.0536C88.8889 45.4689 89.0394 45.1323 89.0888 45.0442C89.183 44.876 89.4344 44.5673 88.9565 45.1709C89.4505 44.64 89.7357 43.946 89.7591 43.2186C89.7539 42.4874 89.466 41.7871 88.9565 41.2664C87.9636 40.348 86.0359 40.0607 85.0814 41.2664Z" fill="white"/>
<path d="M84.1468 43.0574C83.5947 44.1579 83.3449 45.3871 83.4233 46.6177C83.4457 47.3453 83.7311 48.0395 84.2258 48.57C84.7397 49.0878 85.4366 49.3787 86.1634 49.3787C86.8901 49.3787 87.5871 49.0878 88.1009 48.57C88.3589 48.3163 88.563 48.0124 88.701 47.6768C88.8389 47.3412 88.9078 46.9809 88.9035 46.6177C88.8681 46.2734 88.872 45.9261 88.9152 45.5827L88.8174 46.3167C88.8718 45.9749 88.9648 45.6405 89.0945 45.32L88.8183 45.9795L88.8789 45.8444C89.2285 45.1939 89.3269 44.4361 89.1551 43.7169C88.9599 43.025 88.5094 42.4346 87.8959 42.0668C87.5796 41.8822 87.2302 41.7625 86.8678 41.7147C86.5054 41.6669 86.1372 41.692 85.7844 41.7885C85.4415 41.8796 85.1199 42.0388 84.8388 42.2567C84.5576 42.4745 84.3223 42.7468 84.1468 43.0574Z" fill="white"/>
<path d="M87.8485 50.0908C88.3441 52.4697 89.4823 54.6645 91.1375 56.4328C91.6515 56.9501 92.3483 57.2405 93.0747 57.2403C93.8012 57.2401 94.4978 56.9492 95.0115 56.4316C95.5252 55.9141 95.8139 55.2121 95.8141 54.4801C95.8143 53.7481 95.526 53.0461 95.0126 52.5282C94.026 51.4359 93.3734 50.0798 93.133 48.6229C92.8441 47.1597 91.1149 46.32 89.7623 46.6945C88.2482 47.1138 87.5588 48.6234 87.8485 50.0908Z" fill="white"/>
<path d="M90.3342 53.6636C91.6856 55.5642 93.1592 57.3735 94.7455 59.0799C95.2594 59.5972 95.9562 59.8877 96.6827 59.8875C97.4091 59.8873 98.1058 59.5964 98.6195 59.0788C99.1332 58.5612 99.4218 57.8593 99.422 57.1273C99.4222 56.3953 99.134 55.6932 98.6206 55.1753C97.3438 53.8222 96.1565 52.3862 95.0662 50.8766C94.2016 49.6691 92.6816 49.082 91.3172 49.8861C90.1336 50.5837 89.4636 52.4479 90.3342 53.6636Z" fill="white"/>
<path d="M92.3561 54.6757C93.2305 55.6149 93.8493 56.7659 94.1524 58.0169C94.2477 58.3669 94.4106 58.6946 94.6316 58.9812C94.8527 59.2677 95.1277 59.5075 95.4408 59.6869C95.754 59.8663 96.0991 59.9818 96.4565 60.0267C96.814 60.0716 97.1767 60.045 97.524 59.9485C97.8712 59.8521 98.1962 59.6876 98.4803 59.4645C98.7645 59.2413 99.0021 58.964 99.1798 58.6483C99.3575 58.3325 99.4716 57.9846 99.5157 57.6244C99.5599 57.2641 99.533 56.8987 99.4369 56.549C98.8642 54.3834 97.7621 52.3969 96.2313 50.7711C95.7173 50.2538 95.0205 49.9633 94.294 49.9635C93.5676 49.9637 92.8709 50.2546 92.3573 50.7722C91.8436 51.2898 91.5549 51.9917 91.5547 52.7237C91.5545 53.4557 91.8428 54.1578 92.3561 54.6757Z" fill="white"/>
<path d="M91.5515 52.8124C91.6814 53.0718 91.8083 53.3325 91.9281 53.5969L92.0168 53.7956C92.14 54.081 92.1322 54.0618 91.9934 53.7379C92.2326 54.1885 92.4051 54.672 92.5052 55.1729C92.9441 56.5453 94.4256 57.5741 95.8759 57.1012C97.2391 56.6567 98.2604 55.177 97.7897 53.7049C97.3829 52.4409 96.8794 51.2107 96.2835 50.0253C95.9134 49.3967 95.3125 48.9402 94.6108 48.7548C93.9091 48.5694 93.1632 48.67 92.5345 49.0348C91.9201 49.4163 91.475 50.0217 91.292 50.7252C91.1089 51.4287 91.2019 52.1762 91.5515 52.8124Z" fill="white"/>
<path d="M89.717 49.9464C89.9784 51.0631 90.4078 52.133 90.9901 53.1189C91.3582 53.7487 91.959 54.2059 92.6609 54.3901C93.3628 54.5744 94.1086 54.4707 94.7348 54.1019C95.361 53.7331 95.8165 53.1291 96.0016 52.4225C96.1867 51.7158 96.0862 50.964 95.7222 50.3319C95.5999 50.1237 95.4827 49.9134 95.3767 49.6963L95.2991 49.5327C95.1779 49.2598 95.1996 49.3129 95.3642 49.692C95.3131 49.2958 95.0919 48.8741 95.0015 48.4785C94.8031 47.7757 94.3386 47.1797 93.708 46.819C93.0775 46.4582 92.3314 46.3616 91.6309 46.5501C90.9387 46.7582 90.3531 47.2278 89.9965 47.8607C89.6399 48.4936 89.5397 49.2409 89.717 49.9464Z" fill="white"/>
<path d="M89.0495 48.467C89.4405 49.6372 89.9216 50.775 90.4884 51.8699C90.8591 52.4979 91.46 52.9537 92.1615 53.1391C92.8629 53.3244 93.6086 53.2243 94.2374 52.8603C94.8527 52.4796 95.2984 51.8742 95.4815 51.1704C95.6646 50.4666 95.5711 49.7188 95.2204 49.0828C94.9832 48.6835 94.7826 48.2632 94.6211 47.8271C94.825 48.5116 94.6502 47.8836 94.5992 47.7492C94.5051 47.5011 94.4182 47.2506 94.334 46.999C93.8766 45.6333 92.4271 44.5933 90.9633 45.0706C89.6161 45.5099 88.5588 47.0017 89.0495 48.467Z" fill="white"/>
<path d="M89.065 48.177L90.1193 50.6557C90.4797 51.278 91.0674 51.7334 91.7568 51.9246C92.4696 52.1156 93.2283 52.0156 93.8683 51.6463C94.4838 51.2808 94.935 50.6894 95.1275 49.9962C95.2782 49.276 95.1808 48.5256 94.8513 47.8687L93.7971 45.3899C93.4367 44.7676 92.8489 44.3122 92.1595 44.1211C91.4468 43.9301 90.688 44.0301 90.0481 44.3994C89.4326 44.7649 88.9813 45.3562 88.7888 46.0495C88.6381 46.7697 88.7356 47.5201 89.065 48.177Z" fill="white"/>
<path d="M88.6137 46.8862C88.8059 47.614 89.029 48.3317 89.2828 49.0394C89.4904 49.7249 89.9379 50.3112 90.542 50.6895C91.1819 51.059 91.9407 51.1591 92.6535 50.9678C93.976 50.5366 95.0888 49.0258 94.5673 47.5715C94.3133 46.8632 94.0903 46.1455 93.8982 45.4183C93.8025 45.0687 93.6395 44.7415 93.4183 44.4553C93.1972 44.1692 92.9222 43.9298 92.6092 43.7507C92.2962 43.5717 91.9513 43.4565 91.5941 43.4117C91.2369 43.367 90.8745 43.3936 90.5275 43.49C90.1805 43.5864 89.8558 43.7507 89.5718 43.9735C89.2879 44.1963 89.0502 44.4733 88.8725 44.7887C88.6948 45.1041 88.5805 45.4517 88.5361 45.8116C88.4917 46.1715 88.518 46.5366 88.6137 46.8862Z" fill="white"/>
<path d="M89.7162 46.3705C93.2425 46.3705 93.2484 40.8485 89.7162 40.8485C86.19 40.8485 86.1841 46.3705 89.7162 46.3705Z" fill="white"/>
<path d="M90.4496 46.476C93.9759 46.476 93.9817 40.9541 90.4496 40.9541C86.9234 40.9541 86.9175 46.476 90.4496 46.476Z" fill="white"/>
<path d="M89.5068 42.1466C93.033 42.1466 93.0389 36.6247 89.5068 36.6247C85.9805 36.6247 85.9746 42.1466 89.5068 42.1466Z" fill="white"/>
<path d="M89.9784 40.9851C93.5047 40.9851 93.5106 35.4632 89.9784 35.4632C86.4522 35.4632 86.4463 40.9851 89.9784 40.9851Z" fill="white"/>
<path d="M98.9906 63.1601C102.517 63.1601 102.523 57.6381 98.9906 57.6381C95.4644 57.6381 95.4585 63.1601 98.9906 63.1601Z" fill="white"/>
<path d="M97.6283 61.8401C101.155 61.8401 101.16 56.3182 97.6283 56.3182C94.1021 56.3182 94.0962 61.8401 97.6283 61.8401Z" fill="white"/>
<path d="M96.5282 61.4706C100.055 61.4706 100.06 55.9487 96.5282 55.9487C93.002 55.9487 92.9961 61.4706 96.5282 61.4706Z" fill="white"/>
<path d="M95.7421 61.4178C99.2684 61.4178 99.2742 55.8958 95.7421 55.8958C92.2158 55.8958 92.21 61.4178 95.7421 61.4178Z" fill="white"/>
<path d="M94.3798 60.8898C97.9061 60.8898 97.9119 55.3679 94.3798 55.3679C90.8535 55.3679 90.8477 60.8898 94.3798 60.8898Z" fill="white"/>
<path d="M93.5414 60.6258C97.0677 60.6258 97.0735 55.1039 93.5414 55.1039C90.0152 55.1039 90.0093 60.6258 93.5414 60.6258Z" fill="white"/>
<path d="M92.7031 60.4674C96.2293 60.4674 96.2352 54.9455 92.7031 54.9455C89.1768 54.9455 89.1709 60.4674 92.7031 60.4674Z" fill="white"/>
<path d="M91.7074 60.0451C95.2337 60.0451 95.2396 54.5231 91.7074 54.5231C88.1812 54.5231 88.1753 60.0451 91.7074 60.0451Z" fill="white"/>
<path d="M91.0263 60.0451C94.5526 60.0451 94.5584 54.5231 91.0263 54.5231C87.5 54.5231 87.4942 60.0451 91.0263 60.0451Z" fill="white"/>
<path d="M90.2402 59.6755C93.7664 59.6755 93.7723 54.1535 90.2402 54.1535C86.7139 54.1535 86.708 59.6755 90.2402 59.6755Z" fill="white"/>
<path d="M89.454 59.2003C92.9803 59.2003 92.9861 53.6783 89.454 53.6783C85.9278 53.6783 85.9219 59.2003 89.454 59.2003Z" fill="white"/>
<path d="M88.4062 58.1443C91.9325 58.1443 91.9383 52.6224 88.4062 52.6224C84.8799 52.6224 84.8741 58.1443 88.4062 58.1443Z" fill="white"/>
<path d="M87.4628 56.8772C90.9891 56.8772 90.9949 51.3552 87.4628 51.3552C83.9365 51.3552 83.9307 56.8772 87.4628 56.8772Z" fill="white"/>
<path d="M86.7817 55.9268C90.3079 55.9268 90.3138 50.4048 86.7817 50.4048C83.2554 50.4048 83.2495 55.9268 86.7817 55.9268Z" fill="white"/>
<path d="M86.2577 54.8181C89.784 54.8181 89.7899 49.2961 86.2577 49.2961C82.7315 49.2961 82.7256 54.8181 86.2577 54.8181Z" fill="white"/>
<path d="M85.8388 53.4453C89.3651 53.4453 89.3709 47.9234 85.8388 47.9234C82.3125 47.9234 82.3067 53.4453 85.8388 53.4453Z" fill="white"/>
<path d="M85.5766 52.231C89.1029 52.231 89.1087 46.709 85.5766 46.709C82.0503 46.709 82.0445 52.231 85.5766 52.231Z" fill="white"/>
<path d="M85.5766 51.0694C89.1029 51.0694 89.1087 45.5475 85.5766 45.5475C82.0503 45.5475 82.0445 51.0694 85.5766 51.0694Z" fill="white"/>
<path d="M85.6293 50.1719C89.1556 50.1719 89.1614 44.65 85.6293 44.65C82.103 44.65 82.0972 50.1719 85.6293 50.1719Z" fill="white"/>
<path d="M85.7338 49.1687C89.2601 49.1687 89.2659 43.6468 85.7338 43.6468C82.2075 43.6468 82.2017 49.1687 85.7338 49.1687Z" fill="white"/>
<path d="M85.891 48.4295C89.4173 48.4295 89.4232 42.9076 85.891 42.9076C82.3648 42.9076 82.3589 48.4295 85.891 48.4295Z" fill="white"/>
<path d="M87.1488 44.9977C90.6751 44.9977 90.681 39.4758 87.1488 39.4758C83.6226 39.4758 83.6167 44.9977 87.1488 44.9977Z" fill="white"/>
<path d="M87.7773 43.7834C91.3035 43.7834 91.3094 38.2615 87.7773 38.2615C84.251 38.2615 84.2452 43.7834 87.7773 43.7834Z" fill="white"/>
<path d="M88.7206 42.6219C92.2469 42.6219 92.2527 37.0999 88.7206 37.0999C85.1944 37.0999 85.1885 42.6219 88.7206 42.6219Z" fill="white"/>
<path d="M89.2446 41.8827C92.7708 41.8827 92.7767 36.3607 89.2446 36.3607C85.7183 36.3607 85.7124 41.8827 89.2446 41.8827Z" fill="white"/>
<path d="M89.7162 43.7306C93.2425 43.7306 93.2484 38.2086 89.7162 38.2086C86.19 38.2086 86.1841 43.7306 89.7162 43.7306Z" fill="white"/>
<path d="M89.9257 44.5754C93.452 44.5754 93.4578 39.0534 89.9257 39.0534C86.3994 39.0534 86.3936 44.5754 89.9257 44.5754Z" fill="white"/>
<path d="M90.8691 47.532C94.3953 47.532 94.4012 42.0101 90.8691 42.0101C87.3428 42.0101 87.3369 47.532 90.8691 47.532Z" fill="white"/>
<path d="M92.2314 50.1719C95.7576 50.1719 95.7635 44.65 92.2314 44.65C88.7051 44.65 88.6993 50.1719 92.2314 50.1719Z" fill="white"/>
<path d="M93.0698 51.8086C96.596 51.8086 96.6019 46.2866 93.0698 46.2866C89.5435 46.2866 89.5376 51.8086 93.0698 51.8086Z" fill="white"/>
<path d="M93.9081 53.3926C97.4344 53.3926 97.4402 47.8706 93.9081 47.8706C90.3819 47.8706 90.376 53.3926 93.9081 53.3926Z" fill="white"/>
<path d="M94.956 54.9765C98.4823 54.9765 98.4881 49.4545 94.956 49.4545C91.4297 49.4545 91.4239 54.9765 94.956 54.9765Z" fill="white"/>
<path d="M95.6371 56.2436C99.1634 56.2436 99.1692 50.7217 95.6371 50.7217C92.1109 50.7217 92.105 56.2436 95.6371 56.2436Z" fill="white"/>
<path d="M96.7377 57.8276C100.264 57.8276 100.27 52.3056 96.7377 52.3056C93.2114 52.3056 93.2056 57.8276 96.7377 57.8276Z" fill="white"/>
<path d="M87.8823 52.8118C91.4085 52.8118 91.4144 47.2899 87.8823 47.2899C84.356 47.2899 84.3501 52.8118 87.8823 52.8118Z" fill="white"/>
<path d="M98.3095 62.1569C101.836 62.1569 101.842 56.6349 98.3095 56.6349C94.7832 56.6349 94.7774 62.1569 98.3095 62.1569Z" fill="white"/>
<path d="M100.248 63.7408C103.775 63.7408 103.781 58.2189 100.248 58.2189C96.7222 58.2189 96.7163 63.7408 100.248 63.7408Z" fill="white"/>
<path d="M101.191 65.536C104.718 65.536 104.723 60.014 101.191 60.014C97.6651 60.014 97.6592 65.536 101.191 65.536Z" fill="white"/>
<path d="M99.3573 61.9458C102.884 61.9458 102.889 56.4238 99.3573 56.4238C95.8311 56.4238 95.8252 61.9458 99.3573 61.9458Z" fill="white"/>
<path d="M98.3622 60.5202C101.889 60.5202 101.894 54.9983 98.3622 54.9983C94.836 54.9983 94.8301 60.5202 98.3622 60.5202Z" fill="white"/>
<path d="M97.4188 32.4164L94.5323 32.7332C93.6573 32.8681 92.7995 33.0982 91.9737 33.4194C91.3528 33.6679 90.7703 34.0046 90.244 34.4193C89.895 34.6812 89.546 34.9432 89.197 35.205L88.3966 35.8803L87.7774 36.5042L87.1664 37.1199L86.3239 38.2241L85.4064 39.5566L84.7065 40.847L83.9768 42.4437L83.2471 44.2983L82.9492 45.8588L82.7705 46.9392L82.7109 48.7698L82.8748 50.2854L83.0981 51.4188L83.3662 52.3561L83.7683 53.5172L84.5426 55.0666L85.1085 55.9723L85.6291 56.6776L86.0318 57.2178L98.69 52.7312C98.2185 51.9409 97.7469 51.1506 97.2753 50.3604C96.9741 49.8735 96.673 49.3867 96.3718 48.8999L95.384 47.0292L94.3713 45.2136C94.1976 44.8745 94.0239 44.5355 93.8501 44.1965L93.1494 42.5869C92.9958 42.0719 92.8422 41.557 92.6886 41.0421C92.6737 40.707 92.6588 40.3719 92.6439 40.0368C92.6803 39.1828 92.8712 38.3427 93.2071 37.5578C93.5551 36.772 94.0346 36.0523 94.6246 35.4302C95.1201 34.9031 95.6866 34.4485 96.3073 34.0797L97.5654 33.3613C97.5165 33.0463 97.4677 32.7313 97.4188 32.4164Z" fill="white"/>
<path d="M97.1807 32.4425L97.275 33.5244L99.8514 32.4164C99.5375 32.3861 99.2023 32.3656 98.8479 32.3598C98.2909 32.3506 97.734 32.3782 97.1807 32.4425Z" fill="white"/>
<path d="M98.5049 52.5754C100.307 55.2169 101.132 56.5876 101.132 56.5876C101.442 57.1017 101.682 57.52 101.817 57.7592C100.272 59.6995 98.7276 61.6397 97.1828 63.58L95.6051 62.503L94.7377 61.9879L93.9825 61.6289L92.9308 61.223L91.6085 60.8328C90.9778 60.7797 90.3592 60.6269 89.7756 60.3801C89.4793 60.2955 89.1925 60.1804 88.9197 60.0367C88.6388 59.8887 88.3739 59.7117 88.1294 59.5085C87.2409 58.856 86.4363 58.0949 85.7339 57.2426C89.9909 55.6869 94.2479 54.1312 98.5049 52.5754Z" fill="white"/>
<path d="M92.102 122.734C95.1319 119.748 97.082 115.825 97.6413 111.591C98.3453 105.425 96.5671 97.5645 91.2092 93.8602C84.7024 89.3615 78.0857 95.9889 75.0513 101.503" stroke="black" stroke-miterlimit="10"/>
<path d="M88.9058 17.7989C89.702 17.696 90.5524 17.6168 91.4523 17.5738C93.0034 17.4998 94.5579 17.5399 96.1032 17.6938C97.2938 17.9671 98.4105 18.4997 99.3748 19.2544C99.9025 19.6793 100.173 20.0512 100.943 20.6649C101.605 21.1931 102.317 21.6555 103.068 22.0453C101.068 21.5401 99.4818 21.0427 98.4416 20.6969C96.1745 19.9432 95.2482 19.4944 93.2195 18.8743C91.8012 18.44 90.3613 18.0811 88.9058 17.7989Z" fill="#F9F9F9" stroke="black" stroke-miterlimit="10"/>
<path d="M119.171 124.171C120.66 124.411 121.688 123.718 123.197 124.494C125.097 125.469 126.282 128.087 125.555 129.183C125.18 129.749 124.122 129.762 122.023 129.767C119.598 129.772 117.471 129.77 115.717 129.767C113.961 126.317 113.285 124.862 112.253 122.697C110.841 119.733 109.748 117.334 108.632 114.884C107.782 113.018 107.766 112.962 105.439 107.799C105.006 106.84 104.162 104.972 102.515 101.324C102.204 100.635 98.9531 93.435 98.6265 92.7115C99.1776 91.2065 99.7462 89.6884 100.332 88.1573C101.226 85.8212 102.131 83.5342 103.046 81.2965C103.445 82.787 104.099 85.2577 104.875 88.3187C105.273 89.8877 108.668 103.305 113.612 116.889C114.453 119.201 116.143 123.684 119.171 124.171Z" fill="#EE7225" stroke="black" stroke-miterlimit="10"/>
<path d="M115.104 24.2188C114.715 25.0678 114.59 26.0151 114.743 26.9371C114.972 28.2869 116.246 29.6502 116.527 29.9354" stroke="black" stroke-miterlimit="10"/>
<path d="M46.051 56.3188C44.9087 51.9608 43.493 47.6802 41.8125 43.5029C41.0679 47.4183 39.614 51.1621 37.5236 54.5468C37.2553 50.5233 36.5087 46.5468 35.2998 42.7027C33.1698 46.4098 30.7531 49.942 28.0722 53.2664C27.9266 48.9582 27.9448 44.6 27.7992 40.2918C25.3393 43.5557 21.8971 46.7483 19.1577 49.7306" fill="#EE7226"/>
<path d="M46.051 56.3188C44.9087 51.9608 43.493 47.6802 41.8125 43.5029C41.0679 47.4183 39.614 51.1621 37.5236 54.5468C37.2553 50.5233 36.5087 46.5468 35.2998 42.7027C33.1698 46.4098 30.7531 49.942 28.0722 53.2664C27.9266 48.9582 27.9448 44.6 27.7992 40.2918C25.3393 43.5557 21.8971 46.7483 19.1577 49.7306" stroke="#170200" stroke-miterlimit="10"/>
<path d="M46.1124 56.1344C44.9701 51.7764 43.5544 47.4959 41.8739 43.3186C41.1293 47.234 39.6754 50.9777 37.585 54.3625C37.3167 50.339 36.5701 46.3625 35.3612 42.5183C33.2312 46.2254 30.8145 49.7576 28.1336 53.082C27.988 48.7739 28.0062 44.4156 27.8606 40.1074C25.4007 43.3714 21.9585 46.5639 19.2191 49.5463C19.218 49.5495 19.2186 49.5506 19.2186 49.5506C20.6206 47.7311 21.8561 45.7873 22.9098 43.7431C23.3356 42.9174 23.6667 42.2164 23.9423 41.5423C24.2572 40.7723 24.475 40.1238 24.5822 39.8032C24.7624 39.2639 24.8794 38.8645 25.0145 38.4012C25.2301 37.6624 25.4374 36.9516 25.64 36.0504C25.7651 35.4937 25.8431 35.0285 26.0073 34.0997C26.1832 33.1047 26.3118 32.2494 26.4045 31.5788C26.5089 30.8233 26.6029 30.136 26.6824 29.218C26.704 28.969 26.7627 28.2625 26.8016 27.2172C26.8148 26.8633 26.8591 25.5706 26.7916 22.9857C26.769 22.1187 26.7309 20.9943 26.6626 19.6746C26.5874 18.8429 26.4948 17.9892 26.3846 17.1137C26.3165 16.5771 26.2437 16.0502 26.1662 15.5331C26.5251 15.7875 27.0537 16.1782 27.664 16.6935C27.9305 16.9186 28.2994 17.2407 29.7005 18.6142C30.6417 19.5368 31.1123 19.998 31.567 20.4749C32.386 21.3339 32.9811 22.0189 33.3342 22.4266C33.9565 23.145 34.395 23.6852 34.9137 24.3253C35.4505 24.9878 36.154 25.8713 36.9679 26.9372C37.904 28.3614 38.7909 29.7219 39.6286 31.0186C40.0137 31.6142 40.3878 32.1953 40.8398 33.0193C41.2701 33.8037 41.5309 34.3704 42.0113 35.4202C42.5975 36.5918 43.1074 37.8006 43.5377 39.0389C43.7834 39.8066 44.029 40.5743 44.2746 41.342C44.4733 42.0623 44.6719 42.7827 44.8705 43.503C45.0167 44.2371 45.1628 44.9712 45.309 45.7054C45.4144 46.3863 45.5197 47.0672 45.625 47.7482C45.6832 48.1243 45.754 48.7367 45.8236 49.5451C45.8922 50.3425 45.9178 50.9416 45.9427 51.5458C45.9811 52.4742 45.9728 52.7569 45.9986 53.6503C46.0159 54.246 46.0478 55.0965 46.1124 56.1344Z" fill="white"/>
<path d="M101.795 66.1258C102.744 67.152 103.332 68.4639 103.468 69.8595L104.637 69.3715C104.124 68.83 103.872 67.9813 103.508 67.3345C103.095 66.6092 102.64 65.909 102.145 65.2373C101.634 64.5328 100.456 65.1937 100.962 65.934C101.681 66.972 102.271 68.0939 102.721 69.2753L103.973 68.7435C102.6 66.2588 100.777 64.0557 98.5976 62.2483L97.9311 63.402C98.1667 63.5054 98.3639 63.6809 98.4948 63.9037C99.0576 64.5886 100.022 63.6072 99.4636 62.9275C99.1645 62.5342 98.7588 62.2366 98.2953 62.0708C97.6675 61.821 97.1129 62.7964 97.6288 63.2245C99.7209 64.9519 101.472 67.0605 102.79 69.4402C103.159 70.1046 104.324 69.6544 104.042 68.9083C103.559 67.6121 102.922 66.3795 102.145 65.2373L100.962 65.934C101.555 66.7404 102.091 67.5882 102.565 68.471C102.844 69.1451 103.216 69.7768 103.668 70.3476C104.051 70.7519 104.9 70.4681 104.838 69.8595C104.684 68.1013 103.955 66.4445 102.764 65.1496C102.17 64.4911 101.203 65.4697 101.795 66.1258Z" fill="white"/>
<path d="M104.636 75.3141L104.84 73.7686L104.945 72.6432L105.064 71.2327L105.123 69.7022V68.2317L105.049 67.2563L104.974 66.2979L104.88 65.7258L104.781 64.9455L104.636 64.1352L104.453 63.445L104.152 62.5146L103.828 61.5093L103.589 60.9798L103.396 60.3991L103.009 59.6486L102.621 59.0184L102.368 58.6568L101.817 57.7592C100.338 59.6095 98.8587 61.4597 97.3794 63.3099C97.8361 63.6088 98.2745 63.9352 98.6921 64.2875C99.1301 64.6632 99.547 65.0633 99.9408 65.4857C100.31 65.8526 100.659 66.2398 100.986 66.6457C101.34 67.1046 101.667 67.5843 101.965 68.0823C102.233 68.5112 102.443 68.879 102.592 69.147C102.782 69.5213 102.973 69.9266 103.157 70.3624C103.309 70.7199 103.442 71.0659 103.56 71.3978C103.918 72.7032 104.277 74.0087 104.636 75.3141Z" fill="white" stroke="white" stroke-width="0.25" stroke-miterlimit="10"/>
<path d="M115.24 24.4562C114.831 25.2714 114.699 26.199 114.863 27.0972C115.08 28.1687 115.699 29.1146 116.59 29.7381C116.75 29.5235 117.006 29.1933 117.345 28.8109C118.008 28.0629 118.311 27.884 118.673 27.492C118.752 27.406 118.838 27.2938 119.015 27.0746C119.38 26.6241 119.612 26.3165 120.016 25.7868C120.209 25.5328 120.505 25.1445 120.879 24.6563C119.866 24.6193 118.853 24.5829 117.838 24.547C116.991 24.517 116.087 24.4854 115.24 24.4562Z" fill="#1D1D1B"/>
<path d="M116.527 29.9354C112.85 31.089 108.959 31.3774 105.153 30.7785C102.216 30.3308 99.2196 30.4736 96.3372 31.1986C95.0664 31.7388 93.7957 32.279 92.5249 32.8192C91.8535 33.2631 91.1821 33.7069 90.5106 34.1508C89.6382 34.7682 88.8195 35.4592 88.0632 36.2164C87.4229 36.8298 86.8406 37.5019 86.324 38.2241C85.7849 39.0984 85.2457 39.9727 84.7066 40.847C84.3541 41.7324 84.0017 42.6177 83.6493 43.503C83.0045 44.9972 82.6902 46.6148 82.7282 48.2437C82.7771 48.9242 82.826 49.6048 82.8749 50.2854C82.9292 50.9148 83.0623 51.5348 83.2711 52.1306C83.5724 53.1587 83.9996 54.1449 84.5428 55.0666C84.2918 53.2792 84.4342 51.4581 84.9598 49.7324C85.6873 51.6893 86.8216 53.4668 88.2867 54.946C88.1534 53.8178 88.0967 52.6818 88.1169 51.5458C88.1317 50.7106 88.1873 49.9303 88.2672 49.2125C89.4494 51.1018 90.982 52.7438 92.781 54.0487C91.9671 52.4823 91.5577 50.7346 91.5906 48.9668C92.8824 50.5852 94.3779 52.0272 96.0394 53.2564C95.0127 51.8614 94.2458 50.2903 93.7757 48.6194C94.3812 49.2449 95.0644 49.8975 95.8309 50.5554C96.7408 51.3365 97.6956 52.063 98.6901 52.7312C98.48 52.3869 96.9538 49.8838 96.0581 48.3055C95.8046 47.8589 95.5773 47.4475 95.5773 47.4475C95.234 46.826 94.9055 46.2131 94.5919 45.6087C94.0604 44.4314 93.5289 43.2542 92.9974 42.077C92.5971 40.9748 92.5435 39.7752 92.8441 38.6413C93.0364 37.8892 93.3404 37.1708 93.746 36.5105C93.9999 36.1199 94.2944 35.7577 94.6246 35.4301C96.4145 33.7664 98.6373 32.6502 101.033 32.2119C101.918 32.0823 102.81 32.0112 103.704 31.9989C105.864 31.9692 106.465 32.3068 108.727 32.399C110.653 32.4775 111.886 32.5278 113.344 32.0089C114.547 31.57 115.636 30.8609 116.527 29.9354Z" fill="#E0E0E0"/>
<path d="M104.716 76.5146C104.556 75.3706 104.328 74.2372 104.033 73.1206C103.767 72.1121 103.467 71.1909 103.158 70.3624C102.484 68.7945 101.578 67.3385 100.472 66.0438C100.088 65.6971 99.5644 65.2461 98.9184 64.7505C98.139 64.1379 97.3174 63.5818 96.4598 63.0864C95.5546 62.5704 94.6107 62.1267 93.6368 61.7595C92.5789 61.3594 91.4897 61.0494 90.3804 60.8328C88.6723 60.0356 87.1444 58.8942 85.8912 57.4789C84.117 54.9973 83.0205 52.09 82.711 49.0476C82.6365 46.1835 83.3256 43.3516 84.7065 40.847C86.4699 37.4527 89.19 34.6596 92.5248 32.8192C94.0731 31.8275 95.8127 31.1785 97.6285 30.9151C100.311 30.4376 103.052 30.3915 105.749 30.7785C107.459 31.0939 109.204 31.1716 110.935 31.0094C112.833 30.8655 114.71 30.5053 116.527 29.9354" stroke="#1D1D1B" stroke-miterlimit="10"/>
<path d="M58.3589 48.3539L98.69 52.7312C101.77 54.8618 104.051 57.9724 105.168 61.5647C106.388 66.8799 106.122 72.4315 104.4 77.6036C103.977 75.0537 103.355 72.5413 102.541 70.0895C101.621 67.3145 101.002 65.4491 99.5882 63.3847C98.0088 61.1111 95.9422 59.2246 93.5412 57.8648C91.3928 56.9344 89.1929 56.1296 86.9525 55.4545C80.6837 53.5648 75.4985 53.1167 67.4665 52.4661C65.2502 52.2867 62.1288 52.0677 58.3589 51.9187V48.3539Z" fill="#3D3D3D" stroke="#1D1D1B" stroke-miterlimit="10"/>
<path d="M98.1131 93.9723C97.7167 95.4711 97.0358 96.8784 96.1082 98.1162C87.6686 89.6883 78.1577 82.4245 67.8239 76.5146C67.0419 74.6402 66.26 72.7657 65.478 70.8912C72.4583 74.7165 79.1728 79.0151 85.575 83.7572C90.2091 87.19 94.3808 90.6343 98.1131 93.9723Z" fill="#3D3D3D" stroke="#1D1D1B" stroke-miterlimit="10"/>
<path d="M85.009 54.906C85.9726 58.4087 86.1926 62.0767 85.6545 65.6708C84.8582 70.7335 82.6109 75.4513 79.1889 79.2441C74.6187 76.4598 70.0484 73.6755 65.4781 70.8912C61.2708 65.4293 58.7904 58.819 58.3589 51.9187C62.7866 52.0064 67.6258 52.3033 72.8038 52.9218C77.1776 53.4442 81.2554 54.1317 85.009 54.906Z" fill="#3D3D3D" stroke="#1D1D1B" stroke-miterlimit="10"/>
<path d="M116.019 124.171C117.508 124.411 118.536 123.718 120.045 124.494C121.945 125.469 123.13 128.087 122.403 129.183C122.028 129.749 120.97 129.763 118.871 129.767C116.862 129.771 115.058 129.771 113.501 129.768C113.218 129.767 112.94 129.688 112.699 129.538C112.458 129.388 112.263 129.174 112.135 128.92C110.69 126.061 110.044 124.676 109.101 122.697C107.689 119.733 106.596 117.334 105.48 114.884C104.63 113.018 104.614 112.962 102.287 107.799C100.813 104.53 99.4854 101.595 99.3631 101.324C98.2522 98.859 96.6592 93.6185 94.4079 81.8476C94.3622 81.6126 94.3706 81.3701 94.4325 81.1389C94.4943 80.9078 94.608 80.694 94.7647 80.514C95.4386 79.7492 96.1217 78.9239 96.8028 78.0352C97.2624 77.4355 97.6962 76.841 98.1043 76.2516C98.2907 75.9829 98.5567 75.7806 98.8643 75.6736C99.1718 75.5666 99.5051 75.5605 99.8163 75.6561C100.127 75.7517 100.401 75.9442 100.597 76.2059C100.793 76.4675 100.901 76.785 100.907 77.1128C100.982 80.86 101.255 84.6006 101.723 88.3188C102.486 94.3697 105.013 101.924 110.46 116.889C111.301 119.202 112.991 123.684 116.019 124.171Z" fill="#EE7225" stroke="black" stroke-miterlimit="10"/>
<path d="M90.8964 79.8357C94.4227 79.8357 94.4285 74.3138 90.8964 74.3138C87.3701 74.3138 87.3643 79.8357 90.8964 79.8357Z" fill="#EE7225"/>
<path d="M95.3442 80.1159C98.8704 80.1159 98.8763 74.5939 95.3442 74.5939C91.8179 74.5939 91.812 80.1159 95.3442 80.1159Z" fill="#EE7225"/>
<path d="M91.7153 76.5817L91.6726 76.9015C91.5589 77.2574 91.542 77.6376 91.6236 78.0024C91.6395 78.3676 91.7517 78.722 91.9488 79.0289C92.3325 79.63 92.9113 80.0784 93.5864 80.2977L94.3148 80.3964C94.8009 80.3971 95.2783 80.267 95.6978 80.0194L96.2523 79.5877C96.588 79.25 96.8308 78.8302 96.957 78.3694L96.9997 78.0497C97.1134 77.6937 97.1303 77.3135 97.0487 76.9487C97.0328 76.5835 96.9206 76.2291 96.7235 75.9222C96.3398 75.3211 95.761 74.8726 95.0859 74.6533L94.3575 74.5548C93.8714 74.554 93.3939 74.6841 92.9745 74.9317L92.42 75.3634C92.0843 75.7011 91.8414 76.121 91.7153 76.5817Z" fill="#EE7225"/>
<path d="M96.496 79.1155C100.022 79.1155 100.028 73.5935 96.496 73.5935C92.9697 73.5935 92.9639 79.1155 96.496 79.1155Z" fill="#EE7225"/>
<path d="M97.1313 78.3952C100.658 78.3952 100.663 72.8733 97.1313 72.8733C93.605 72.8733 93.5992 78.3952 97.1313 78.3952Z" fill="#EE7225"/>
<path d="M97.4091 78.4753C100.935 78.4753 100.941 72.9534 97.4091 72.9534C93.8828 72.9534 93.877 78.4753 97.4091 78.4753Z" fill="#EE7225"/>
<path d="M98.0844 78.3152C101.611 78.3152 101.617 72.7933 98.0844 72.7933C94.5581 72.7933 94.5523 78.3152 98.0844 78.3152Z" fill="#EE7225"/>
<path d="M98.4418 77.9951C101.968 77.9951 101.974 72.4731 98.4418 72.4731C94.9155 72.4731 94.9097 77.9951 98.4418 77.9951Z" fill="#EE7225"/>
<path d="M98.6005 78.0752C102.127 78.0752 102.133 72.5532 98.6005 72.5532C95.0742 72.5532 95.0684 78.0752 98.6005 78.0752Z" fill="#EE7225"/>
<path d="M95.3046 80.2359C98.8309 80.2359 98.8367 74.714 95.3046 74.714C91.7783 74.714 91.7725 80.2359 95.3046 80.2359Z" fill="#EE7225"/>
<path d="M95.1855 80.7961C98.7117 80.7961 98.7176 75.2742 95.1855 75.2742C91.6592 75.2742 91.6534 80.7961 95.1855 80.7961Z" fill="#EE7225"/>
<path d="M94.9472 81.0362C98.4735 81.0362 98.4793 75.5142 94.9472 75.5142C91.4209 75.5142 91.4151 81.0362 94.9472 81.0362Z" fill="#EE7225"/>
<path d="M94.8281 81.3163C98.3543 81.3163 98.3602 75.7943 94.8281 75.7943C91.3018 75.7943 91.2959 81.3163 94.8281 81.3163Z" fill="#EE7225"/>
<path d="M94.7485 81.5964C98.2747 81.5964 98.2806 76.0745 94.7485 76.0745C91.2222 76.0745 91.2163 81.5964 94.7485 81.5964Z" fill="#EE7225"/>
<path d="M94.0737 82.3967C97.5999 82.3967 97.6058 76.8748 94.0737 76.8748C90.5474 76.8748 90.5415 82.3967 94.0737 82.3967Z" fill="#EE7225"/>
<path d="M93.0409 83.5571C96.5672 83.5571 96.5731 78.0352 93.0409 78.0352C89.5147 78.0352 89.5088 83.5571 93.0409 83.5571Z" fill="#EE7225"/>
<path d="M93.0805 84.4374C96.6068 84.4374 96.6126 78.9154 93.0805 78.9154C89.5542 78.9154 89.5484 84.4374 93.0805 84.4374Z" fill="#EE7225"/>
<path d="M98.9579 78.5553C102.484 78.5553 102.49 73.0333 98.9579 73.0333C95.4317 73.0333 95.4258 78.5553 98.9579 78.5553Z" fill="#EE7225"/>
<path d="M99.3949 78.7553C102.921 78.7553 102.927 73.2334 99.3949 73.2334C95.8687 73.2334 95.8628 78.7553 99.3949 78.7553Z" fill="#EE7225"/>
</g>
<defs>
<clipPath id="clip0_2332_806">
<rect width="126" height="130" fill="white"/>
</clipPath>
</defs>
</svg>
